<svg width="171" height="128" viewBox="0 0 171 128" fill="none" xmlns="http://www.w3.org/2000/svg">
<path d="M149.333 0H21.3333C9.6 0 0 9.568 0 21.3333V106.667C0 118.4 9.568 128 21.3333 128H149.333C161.067 128 170.667 118.432 170.667 106.667V21.3333C170.667 9.6 161.099 0 149.333 0ZM160 106.667C160 112.533 155.2 117.333 149.333 117.333H21.3333C15.4667 117.333 10.6667 112.533 10.6667 106.667V53.3333H160V106.667ZM10.6667 21.3333C10.6667 15.4667 15.4667 10.6667 21.3333 10.6667H149.333C155.2 10.6667 160 15.4667 160 21.3333V32H10.6667V21.3333ZM53.3333 106.667H42.6667C39.8377 106.667 37.1246 105.543 35.1242 103.542C33.1238 101.542 32 98.829 32 96V85.3333C32 82.5044 33.1238 79.7913 35.1242 77.7909C37.1246 75.7905 39.8377 74.6667 42.6667 74.6667H53.3333C56.1623 74.6667 58.8754 75.7905 60.8758 77.7909C62.8762 79.7913 64 82.5044 64 85.3333V96C64 98.829 62.8762 101.542 60.8758 103.542C58.8754 105.543 56.1623 106.667 53.3333 106.667Z" fill="black"/>
</svg>
