<svg width="39" height="36" viewBox="0 0 39 36" fill="none" xmlns="http://www.w3.org/2000/svg">
<path d="M38.8979 15.9458C38.7216 15.2382 38.3815 14.5748 37.9012 14.0021C37.4139 13.4337 36.7991 12.9711 36.0996 12.6468C35.5481 12.3943 34.9494 12.243 34.3364 12.201C34.024 9.0805 32.5375 6.16282 30.1391 3.96236C27.408 1.4251 23.7064 0 19.847 0C15.9876 0 12.286 1.4251 9.55496 3.96236C7.15653 6.16282 5.67007 9.0805 5.35765 12.201C4.7446 12.243 4.14596 12.3943 3.59439 12.6468C2.89149 12.9661 2.27553 13.4295 1.7928 14.0021C1.30899 14.5736 0.968449 15.2384 0.796027 15.948C0.623605 16.6576 0.623656 17.394 0.796176 18.1036L3.80521 29.5699C4.32312 31.3268 5.44845 32.8761 7.00733 33.9784C8.56621 35.0808 10.4719 35.6748 12.4298 35.6686H27.2067C29.1714 35.6706 31.0821 35.071 32.6442 33.9624C34.2064 32.8537 35.333 31.2977 35.8505 29.5343L38.8404 18.1036C39.032 17.3974 39.0512 16.6591 38.8979 15.9458ZM13.7906 27.3943C13.7906 27.7491 13.6392 28.0892 13.3696 28.3401C13.1 28.5909 12.7344 28.7318 12.3532 28.7318C11.9719 28.7318 11.6063 28.5909 11.3368 28.3401C11.0672 28.0892 10.9157 27.7491 10.9157 27.3943V20.3683C10.9157 20.0136 11.0672 19.6734 11.3368 19.4226C11.6063 19.1718 11.9719 19.0309 12.3532 19.0309C12.7344 19.0309 13.1 19.1718 13.3696 19.4226C13.6392 19.6734 13.7906 20.0136 13.7906 20.3683V27.3943ZM21.2845 27.3943C21.2845 27.57 21.2473 27.7439 21.175 27.9062C21.1028 28.0684 20.9969 28.2159 20.8634 28.3401C20.73 28.4643 20.5715 28.5628 20.3971 28.63C20.2227 28.6972 20.0358 28.7318 19.847 28.7318C19.6583 28.7318 19.4713 28.6972 19.2969 28.63C19.1225 28.5628 18.9641 28.4643 18.8306 28.3401C18.6971 28.2159 18.5912 28.0684 18.519 27.9062C18.4468 27.7439 18.4096 27.57 18.4096 27.3943V20.3683C18.4096 20.0136 18.561 19.6734 18.8306 19.4226C19.1002 19.1718 19.4658 19.0309 19.847 19.0309C20.2283 19.0309 20.5939 19.1718 20.8634 19.4226C21.133 19.6734 21.2845 20.0136 21.2845 20.3683V27.3943ZM28.7783 27.3943C28.7783 27.7491 28.6269 28.0892 28.3573 28.3401C28.0877 28.5909 27.7221 28.7318 27.3409 28.7318C26.9596 28.7318 26.594 28.5909 26.3244 28.3401C26.0549 28.0892 25.9034 27.7491 25.9034 27.3943V20.3683C25.9034 20.0136 26.0549 19.6734 26.3244 19.4226C26.594 19.1718 26.9596 19.0309 27.3409 19.0309C27.7221 19.0309 28.0877 19.1718 28.3573 19.4226C28.6269 19.6734 28.7783 20.0136 28.7783 20.3683V27.3943ZM8.25169 12.1653C8.56689 9.77153 9.74205 7.54702 11.5865 5.85261C13.781 3.82062 16.751 2.67988 19.847 2.67988C22.943 2.67988 25.913 3.82062 28.1075 5.85261C29.952 7.54702 31.1271 9.77153 31.4423 12.1653H8.25169Z" fill="#2194F2"/>
</svg>
