<svg width="101" height="100" viewBox="0 0 101 100" fill="none" xmlns="http://www.w3.org/2000/svg">
<path d="M10.0734 65.9289L43.9606 85.2922V46.5657L10.0703 27.2025L10.0734 65.9289Z" fill="#EA9D2D"/>
<path d="M43.9604 7.83923L10.0732 27.1993L43.9604 46.5626V85.289L77.8445 65.9258V27.2025L43.9604 7.83923Z" fill="#FBB540"/>
<path d="M43.9604 85.2921L58.4813 77.2257L77.8476 65.9289V27.1993L43.9636 46.5626L43.9604 85.2921Z" fill="#F7BA61"/>
<path d="M74.6175 59.4745C70.3379 59.4745 66.2337 61.1745 63.2076 64.2006C60.1815 67.2267 58.4814 71.331 58.4814 75.6105C58.4814 79.89 60.1815 83.9943 63.2076 87.0204C66.2337 90.0465 70.3379 91.7465 74.6175 91.7465C78.897 91.7465 83.0013 90.0465 86.0273 87.0204C89.0534 83.9943 90.7535 79.89 90.7535 75.6105C90.7535 71.331 89.0534 67.2267 86.0273 64.2006C83.0013 61.1745 78.897 59.4745 74.6175 59.4745Z" fill="#03CC00"/>
<path d="M34.2792 57.8625L22.9824 51.4081V34.575L34.2792 41.0294V57.8625Z" fill="#D9D9D9"/>
<path d="M55.298 14.3154L45.5697 20.7481L56.8665 27.2025L66.5699 20.7605L55.298 14.3154ZM37.5033 25.5904L22.9824 34.5749L34.2792 41.0293L48.8 32.0386L37.5033 25.5904Z" fill="#F0F0F0"/>
<path d="M67.3631 41.7078L52.8423 50.0077C52.6509 50.1091 52.4818 50.248 52.3452 50.4161C52.2086 50.5842 52.1072 50.7781 52.047 50.9862C51.9869 51.1943 51.9692 51.4124 51.995 51.6274C52.0209 51.8425 52.0897 52.0502 52.1975 52.2381C52.3052 52.426 52.4497 52.5904 52.6222 52.7213C52.7948 52.8523 52.9919 52.9472 53.2019 53.0004C53.4118 53.0536 53.6304 53.0641 53.8445 53.0311C54.0586 52.9981 54.2639 52.9224 54.4481 52.8085L68.969 44.5087C69.3254 44.2883 69.5822 43.9379 69.6852 43.5317C69.7881 43.1255 69.7292 42.6951 69.5207 42.3316C69.3123 41.968 68.9707 41.6997 68.5681 41.5833C68.1655 41.4669 67.7334 41.5116 67.3631 41.7078ZM79.4597 27.2056C79.4595 27.0625 79.4397 26.9201 79.4006 26.7824L79.3383 26.6206L79.245 26.3934C79.2035 26.3436 79.162 26.2896 79.1205 26.2316L78.9867 26.0573L78.8248 25.9359L78.6506 25.8021L44.7665 6.43888C44.5227 6.30028 44.2471 6.22742 43.9667 6.22742C43.6863 6.22742 43.4107 6.30028 43.1669 6.43888L9.28283 25.799L9.10855 25.9328L8.94672 26.0542L8.80979 26.2284C8.7683 26.2803 8.72888 26.3343 8.69154 26.3903L8.59817 26.6175L8.53282 26.7793C8.49086 26.9155 8.46782 27.0569 8.46436 27.1994V65.9258C8.46422 66.2094 8.53861 66.4881 8.68007 66.7338C8.82154 66.9796 9.0251 67.1839 9.27038 67.3263L43.1451 86.6833L43.1638 86.6926L43.4034 86.7922C43.4511 86.8129 43.4999 86.8316 43.5497 86.8482C43.8186 86.9218 44.1023 86.9218 44.3713 86.8482C44.4179 86.8389 44.4584 86.814 44.5051 86.7984L44.7509 86.7019L57.3672 79.6905C58.4625 84.254 61.3215 88.1975 65.3183 90.6574C69.3151 93.1174 74.1238 93.8932 78.6914 92.815C83.259 91.7368 87.2132 88.8925 89.688 84.9049C92.1628 80.9174 92.9566 76.1116 91.8955 71.54C91.1694 68.4632 89.6342 65.6363 87.4489 63.352C85.2636 61.0677 82.5075 59.4088 79.4659 58.5471L79.4597 27.2056ZM37.5714 27.4795L45.7312 32.1445L34.7706 39.4516L26.6076 34.7866L37.5714 27.4795ZM27.2861 39.5854L32.6637 42.6632V55.0834L24.5941 50.4682V38.0511L27.2861 39.5854ZM56.8039 25.3073L48.6503 20.6485L55.3599 16.2138L63.498 20.8633L56.8039 25.3073ZM52.2199 14.4213L44.6825 19.4037C44.3259 19.6414 44.0782 20.0107 43.9936 20.4308C43.909 20.8508 43.9945 21.2872 44.2312 21.6444C44.3677 21.8532 44.5523 22.0261 44.7696 22.1485L56.0664 28.6029C56.3262 28.7509 56.6219 28.824 56.9208 28.8141C57.2196 28.8042 57.5099 28.7118 57.7593 28.5469L66.6349 22.6558L74.5956 27.1994L43.9636 44.7047L37.9075 41.2379L49.6991 33.3768C49.9265 33.2235 50.1112 33.0148 50.2358 32.7705C50.3604 32.5262 50.4209 32.2542 50.4116 31.9801C50.4022 31.706 50.3234 31.4388 50.1824 31.2035C50.0415 30.9682 49.843 30.7726 49.6057 30.6351L38.309 24.1807C38.0488 24.0321 37.7525 23.9587 37.453 23.9686C37.1536 23.9785 36.8627 24.0713 36.6129 24.2367L23.48 32.9909L13.3285 27.2025L43.9636 9.69409L52.2199 14.4213ZM21.3669 35.5179V51.4081C21.3671 51.692 21.442 51.9708 21.584 52.2166C21.726 52.4624 21.9302 52.6666 22.1761 52.8085L33.4697 59.2629C33.7152 59.4054 33.9939 59.4805 34.2777 59.4807C34.5615 59.4809 34.8403 59.4062 35.086 59.2641C35.3317 59.122 35.5355 58.9176 35.6768 58.6715C35.8181 58.4253 35.892 58.1463 35.8909 57.8625V43.8147L42.3453 47.5025V82.5193L11.6853 64.9953V29.9847L21.3669 35.5179ZM45.5725 47.5025L76.2325 29.9816V57.9434C75.6955 57.8931 75.1566 57.8661 74.6173 57.8625C69.9115 57.8674 65.3998 59.7388 62.0719 63.0661C58.7441 66.3933 56.8719 70.9047 56.8662 75.6106C56.8662 75.8284 56.8911 76.04 56.9004 76.2548L45.5725 82.5504V47.5025ZM60.0934 75.6106C60.0934 71.7586 61.6236 68.0643 64.3473 65.3406C67.0711 62.6168 70.7653 61.0866 74.6173 61.0866C78.4693 61.0866 82.1636 62.6168 84.8873 65.3406C87.6111 68.0643 89.1413 71.7586 89.1413 75.6106C89.1388 79.4618 87.6078 83.1546 84.8846 85.8778C82.1614 88.6011 78.4686 90.132 74.6173 90.1345C70.7653 90.1345 67.0711 88.6043 64.3473 85.8806C61.6236 83.1568 60.0934 79.4626 60.0934 75.6106ZM74.8258 75.0006C74.0767 76.6249 73.2996 78.2361 72.4949 79.8336C72.4638 79.8336 71.524 78.3803 70.3881 76.6033C68.9596 74.3626 68.2532 73.3294 68.0478 73.2049C67.6526 72.9809 66.8061 72.9809 66.4295 73.2143C66.2335 73.3388 65.7978 73.9705 65.0789 75.1562L64.0208 76.9207H59.001V79.8834L62.2251 79.8523C65.194 79.8243 65.4772 79.8149 65.748 79.6376C65.9347 79.5224 66.2832 79.0556 66.6598 78.4239C67.0084 77.8637 67.3133 77.4342 67.3413 77.484L69.4856 80.845C70.9513 83.1324 71.6609 84.1749 71.8725 84.3087C72.1298 84.4345 72.413 84.4983 72.6994 84.4951C72.9858 84.4918 73.2675 84.4216 73.5219 84.2901C73.9016 84.0567 73.5997 84.648 77.1941 77.0857L79.7553 71.6614L79.9981 72.0877C80.135 72.3118 81.0375 73.9892 82.0085 75.8035C84.0064 79.5317 83.938 79.4073 84.3083 79.65C84.5604 79.8149 84.8311 79.8336 87.716 79.8336H90.8436V76.9207H88.4473L86.0355 76.9114L83.6859 72.5234C80.7574 67.0711 80.8041 67.1582 80.4556 66.9715C80.0385 66.7568 79.2107 66.7848 78.8248 67.0306C78.4638 67.264 78.5136 67.1707 74.8258 75.0006Z" fill="black"/>
</svg>
