<svg width="65" height="70" viewBox="0 0 65 70" fill="none" xmlns="http://www.w3.org/2000/svg">
<path d="M32.7742 0C50.5555 0 64.9692 14.3264 64.9692 32C64.9692 49.6736 50.5555 64 32.7742 64C14.9928 64 0.579102 49.6736 0.579102 32C0.579102 14.3264 14.9928 0 32.7742 0ZM32.7742 6.4C25.9432 6.4 19.3921 9.09713 14.5619 13.8981C9.73169 18.699 7.01812 25.2105 7.01812 32C7.01812 38.7895 9.73169 45.301 14.5619 50.1019C19.3921 54.9029 25.9432 57.6 32.7742 57.6C39.6051 57.6 46.1563 54.9029 50.9865 50.1019C55.8166 45.301 58.5302 38.7895 58.5302 32C58.5302 25.2105 55.8166 18.699 50.9865 13.8981C46.1563 9.09713 39.6051 6.4 32.7742 6.4ZM32.7742 12.8C33.5627 12.8001 34.3238 13.0879 34.9131 13.6087C35.5024 14.1295 35.8789 14.8472 35.9711 15.6256L35.9937 16V30.6752L44.7089 39.3376C45.2863 39.9135 45.6215 40.6862 45.6465 41.4988C45.6715 42.3115 45.3843 43.1031 44.8433 43.7129C44.3023 44.3227 43.5481 44.705 42.7338 44.7821C41.9195 44.8592 41.1062 44.6253 40.4591 44.128L40.1565 43.8624L30.498 34.2624C29.9976 33.7646 29.6762 33.1168 29.5836 32.4192L29.5547 32V16C29.5547 15.1513 29.8939 14.3374 30.4976 13.7373C31.1014 13.1371 31.9203 12.8 32.7742 12.8Z" fill="black"/>
</svg>
