<svg width="94" height="44" viewBox="0 0 94 44" fill="none" xmlns="http://www.w3.org/2000/svg">
<path d="M47.8606 20.0698L36.6293 11.0359V4.88316C36.6891 3.65002 36.2575 2.44349 35.429 1.5281C34.6006 0.61272 33.443 0.0631894 32.21 0H4.37604C3.15175 0.0755904 2.00654 0.630496 1.18851 1.5445C0.370469 2.45851 -0.0545182 3.65802 0.00561194 4.88316V29.299C-0.0170489 30.2685 0.249512 31.2229 0.771315 32.0404C1.29312 32.8579 2.04653 33.5015 2.93551 33.8891C2.48585 34.9892 2.31061 36.1821 2.42489 37.365C2.53918 38.5479 2.93956 39.6852 3.59149 40.6788C4.24342 41.6724 5.12733 42.4925 6.16694 43.0683C7.20655 43.644 8.37064 43.9582 9.55876 43.9837C10.7469 44.0091 11.9234 43.7451 12.9867 43.2144C14.05 42.6837 14.9682 41.9023 15.6621 40.9375C16.356 39.9727 16.8048 38.8536 16.9696 37.6767C17.1345 36.4998 17.0105 35.3004 16.6084 34.1821H32.1368C31.7352 35.2885 31.6062 36.4753 31.7606 37.6421C31.915 38.8089 32.3484 39.9213 33.0239 40.8851C33.6994 41.8489 34.5972 42.6358 35.6413 43.179C36.6854 43.7222 37.8451 44.0059 39.0221 44.0059C40.199 44.0059 41.3587 43.7222 42.4028 43.179C43.4469 42.6358 44.3447 41.8489 45.0202 40.8851C45.6958 39.9213 46.1291 38.8089 46.2835 37.6421C46.4379 36.4753 46.3089 35.2885 45.9073 34.1821H46.3956C47.0432 34.1821 47.6642 33.9249 48.1221 33.467C48.58 33.0091 48.8372 32.3881 48.8372 31.7405V21.9742C48.8297 21.6035 48.7379 21.2393 48.5687 20.9093C48.3995 20.5793 48.1573 20.2922 47.8606 20.0698ZM43.954 23.1462V29.299H36.6293V17.2864L43.954 23.1462ZM12.2135 36.6237C12.2135 37.1066 12.0703 37.5787 11.802 37.9802C11.5337 38.3817 11.1524 38.6946 10.7063 38.8794C10.2601 39.0642 9.76922 39.1126 9.2956 39.0184C8.82198 38.9242 8.38694 38.6916 8.04547 38.3502C7.70401 38.0087 7.47147 37.5736 7.37727 37.1C7.28306 36.6264 7.33141 36.1355 7.51621 35.6893C7.701 35.2432 8.01395 34.8619 8.41546 34.5936C8.81698 34.3253 9.28903 34.1821 9.77193 34.1821C10.4195 34.1821 11.0405 34.4394 11.4984 34.8972C11.9563 35.3551 12.2135 35.9762 12.2135 36.6237ZM24.4214 29.299H4.88877V4.88316H31.7461V29.299H24.4214ZM41.5125 36.6237C41.5125 37.1066 41.3693 37.5787 41.101 37.9802C40.8327 38.3817 40.4514 38.6946 40.0052 38.8794C39.5591 39.0642 39.0682 39.1126 38.5946 39.0184C38.1209 38.9242 37.6859 38.6916 37.3444 38.3502C37.003 38.0087 36.7704 37.5736 36.6762 37.1C36.582 36.6264 36.6304 36.1355 36.8152 35.6893C37 35.2432 37.3129 34.8619 37.7144 34.5936C38.1159 34.3253 38.588 34.1821 39.0709 34.1821C39.7184 34.1821 40.3395 34.4394 40.7973 34.8972C41.2552 35.3551 41.5125 35.9762 41.5125 36.6237Z" fill="black"/>
<path d="M64.6237 41.6642C64.3226 41.6642 64.0338 41.7848 63.8209 41.9995C63.6079 42.2142 63.4883 42.5053 63.4883 42.8089C63.4883 43.1124 63.6079 43.4036 63.8209 43.6182C64.0338 43.8329 64.3226 43.9535 64.6237 43.9535H92.6319C92.933 43.9535 93.2218 43.8329 93.4348 43.6182C93.6477 43.4036 93.7673 43.1124 93.7673 42.8089C93.7673 42.5053 93.6477 42.2142 93.4348 41.9995C93.2218 41.7848 92.933 41.6642 92.6319 41.6642H64.6237ZM64.6237 19.5349C64.3226 19.5349 64.0338 19.6555 63.8209 19.8701C63.6079 20.0848 63.4883 20.3759 63.4883 20.6795C63.4883 20.9831 63.6079 21.2742 63.8209 21.4889C64.0338 21.7035 64.3226 21.8241 64.6237 21.8241L92.6319 21.8241C92.933 21.8241 93.2218 21.7035 93.4348 21.4889C93.6477 21.2742 93.7673 20.9831 93.7673 20.6795C93.7673 20.3759 93.6477 20.0848 93.4348 19.8701C93.2218 19.6555 92.933 19.5349 92.6319 19.5349L64.6237 19.5349ZM64.6237 30.5996C64.3226 30.5996 64.0338 30.7202 63.8209 30.9348C63.6079 31.1495 63.4883 31.4406 63.4883 31.7442C63.4883 32.0478 63.6079 32.3389 63.8209 32.5536C64.0338 32.7682 64.3226 32.8888 64.6237 32.8888H69.9226C70.2237 32.8888 70.5125 32.7682 70.7255 32.5536C70.9384 32.3389 71.058 32.0478 71.058 31.7442C71.058 31.4406 70.9384 31.1495 70.7255 30.9348C70.5125 30.7202 70.2237 30.5996 69.9226 30.5996H64.6237ZM81.2772 32.8888C81.5784 32.8888 81.8672 32.7682 82.0801 32.5536C82.2931 32.3389 82.4127 32.0478 82.4127 31.7442C82.4127 31.4406 82.2931 31.1495 82.0801 30.9348C81.8672 30.7202 81.5784 30.5996 81.2772 30.5996H75.9784C75.6773 30.5996 75.3884 30.7202 75.1755 30.9348C74.9626 31.1495 74.8429 31.4406 74.8429 31.7442C74.8429 32.0478 74.9626 32.3389 75.1755 32.5536C75.3884 32.7682 75.6773 32.8888 75.9784 32.8888H81.2772ZM87.333 32.8888C87.0319 32.8888 86.7431 32.7682 86.5302 32.5536C86.3172 32.3389 86.1976 32.0478 86.1976 31.7442C86.1976 31.4406 86.3172 31.1495 86.5302 30.9348C86.7431 30.7202 87.0319 30.5996 87.333 30.5996H92.6319C92.933 30.5996 93.2218 30.7202 93.4348 30.9348C93.6477 31.1495 93.7673 31.4406 93.7673 31.7442C93.7673 32.0478 93.6477 32.3389 93.4348 32.5536C93.2218 32.7682 92.933 32.8888 92.6319 32.8888H87.333Z" fill="black"/>
</svg>
