<svg width="138" height="138" viewBox="0 0 138 138" fill="none" xmlns="http://www.w3.org/2000/svg">
<path d="M133 69H5M69 5V133M75.4 69C75.4 75.7895 78.0971 82.301 82.8981 87.1019C87.699 91.9029 94.2105 94.6 101 94.6M62.6 69C62.6 75.7895 59.9029 82.301 55.1019 87.1019C50.301 91.9029 43.7895 94.6 37 94.6" stroke="black" stroke-width="10" stroke-linecap="round"/>
<path d="M69 56.424C69.0036 51.79 70.5545 47.29 73.4067 43.6378C76.2589 39.9856 80.249 37.3904 84.744 36.264C95.0032 33.704 104.302 42.9968 101.736 53.2624C100.61 57.7574 98.0144 61.7475 94.3622 64.5997C90.71 67.4519 86.21 69.0028 81.576 69.0064H69M69 56.424V69.0064M69 56.424C68.9964 51.79 67.4455 47.29 64.5933 43.6378C61.7411 39.9856 57.751 37.3904 53.256 36.264C42.9968 33.704 33.6976 42.9968 36.264 53.2624C37.3904 57.7574 39.9856 61.7475 43.6378 64.5997C47.29 67.4519 51.7901 69.0028 56.424 69.0064H69" stroke="black" stroke-width="10"/>
<path d="M5 69C5 38.8304 5 23.7456 14.3696 14.3696C23.752 5 38.8304 5 69 5C99.1696 5 114.254 5 123.624 14.3696C133 23.752 133 38.8304 133 69C133 99.1696 133 114.254 123.624 123.624C114.261 133 99.1696 133 69 133C38.8304 133 23.7456 133 14.3696 123.624C5 114.261 5 99.1696 5 69Z" stroke="black" stroke-width="10"/>
</svg>
