<svg width="96" height="128" viewBox="0 0 96 128" fill="none" xmlns="http://www.w3.org/2000/svg">
<path d="M68.9178 63.6667C81.5629 69.976 90.2237 83.1333 90.2237 101V122.333H5V101C5 83.112 13.6875 69.9333 26.3059 63.6667M79.5708 37C79.5708 41.2023 78.7441 45.3635 77.1381 49.2459C75.532 53.1283 73.1779 56.6559 70.2102 59.6274C67.2426 62.5989 63.7194 64.956 59.842 66.5641C55.9646 68.1723 51.8088 69 47.6119 69C39.1358 69 31.007 65.6286 25.0135 59.6274C19.0201 53.6263 15.653 45.4869 15.653 37M79.5708 37C79.5708 32.7977 78.7441 28.6366 77.1381 24.7541C75.532 20.8717 73.1779 17.3441 70.2102 14.3726C67.2426 11.4011 63.7194 9.04401 59.842 7.43585C55.9646 5.8277 51.8088 5 47.6119 5C39.1358 5 31.007 8.37142 25.0135 14.3726C19.0201 20.3737 15.653 28.5131 15.653 37M79.5708 37C71.5811 37 63.5913 38.92 52.9384 26.3333C42.2854 38.92 28.9692 42.3333 15.653 37M20.9795 69L47.745 97.0373L74.2443 69M47.6119 95.6667V122.333" stroke="black" stroke-width="10"/>
</svg>
