<svg width="20" height="20" viewBox="0 0 20 20" fill="none" xmlns="http://www.w3.org/2000/svg">
<path d="M11.1429 0C11.5343 0 11.91 0.14125 12.18 0.39L16.7514 4.675C17.0029 4.9075 17.1429 5.21625 17.1429 5.53625V16.25C17.1429 16.5815 16.9923 16.8995 16.7244 17.1339C16.4565 17.3683 16.0932 17.5 15.7143 17.5H1.42857C1.04969 17.5 0.686328 17.3683 0.418419 17.1339C0.15051 16.8995 0 16.5815 0 16.25V1.25C0 0.918479 0.15051 0.600537 0.418419 0.366117C0.686328 0.131696 1.04969 0 1.42857 0L11.1429 0ZM15.7143 6.25H10.7143C10.5248 6.25 10.3432 6.18415 10.2092 6.06694C10.0753 5.94973 10 5.79076 10 5.625V1.25H1.42857V16.25H15.7143V6.25ZM5 13.75C4.81056 13.75 4.62888 13.6842 4.49492 13.5669C4.36097 13.4497 4.28571 13.2908 4.28571 13.125C4.28571 12.9592 4.36097 12.8003 4.49492 12.6831C4.62888 12.5658 4.81056 12.5 5 12.5H12.1429C12.3323 12.5 12.514 12.5658 12.6479 12.6831C12.7819 12.8003 12.8571 12.9592 12.8571 13.125C12.8571 13.2908 12.7819 13.4497 12.6479 13.5669C12.514 13.6842 12.3323 13.75 12.1429 13.75H5ZM5 10C4.81056 10 4.62888 9.93415 4.49492 9.81694C4.36097 9.69973 4.28571 9.54076 4.28571 9.375C4.28571 9.20924 4.36097 9.05027 4.49492 8.93306C4.62888 8.81585 4.81056 8.75 5 8.75H12.1429C12.3323 8.75 12.514 8.81585 12.6479 8.93306C12.7819 9.05027 12.8571 9.20924 12.8571 9.375C12.8571 9.54076 12.7819 9.69973 12.6479 9.81694C12.514 9.93415 12.3323 10 12.1429 10H5ZM6.42857 20C6.23913 20 6.05745 19.9342 5.9235 19.8169C5.78954 19.6997 5.71429 19.5408 5.71429 19.375C5.71429 19.2092 5.78954 19.0503 5.9235 18.9331C6.05745 18.8158 6.23913 18.75 6.42857 18.75H18.5714V8.125C18.5714 7.95924 18.6467 7.80027 18.7806 7.68306C18.9146 7.56585 19.0963 7.5 19.2857 7.5C19.4752 7.5 19.6568 7.56585 19.7908 7.68306C19.9247 7.80027 20 7.95924 20 8.125V18.75C20 19.0815 19.8495 19.3995 19.5816 19.6339C19.3137 19.8683 18.9503 20 18.5714 20H6.42857Z" fill="white"/>
</svg>
