<svg width="117" height="82" viewBox="0 0 117 82" fill="none" xmlns="http://www.w3.org/2000/svg">
<path d="M102.375 0H14.625C6.58125 0 0 6.1295 0 13.6667V68.3333C0 75.85 6.55931 82 14.625 82H102.375C110.419 82 117 75.8705 117 68.3333V13.6667C117 6.15 110.441 0 102.375 0ZM109.688 68.3333C109.688 72.0917 106.397 75.1667 102.375 75.1667H14.625C10.6031 75.1667 7.3125 72.0917 7.3125 68.3333V34.1667H109.688V68.3333ZM7.3125 13.6667C7.3125 9.90833 10.6031 6.83333 14.625 6.83333H102.375C106.397 6.83333 109.688 9.90833 109.688 13.6667V20.5H7.3125V13.6667ZM36.5625 68.3333H29.25C27.3106 68.3333 25.4506 67.6134 24.0793 66.3319C22.7079 65.0504 21.9375 63.3123 21.9375 61.5V54.6667C21.9375 52.8544 22.7079 51.1163 24.0793 49.8348C25.4506 48.5533 27.3106 47.8333 29.25 47.8333H36.5625C38.5019 47.8333 40.3619 48.5533 41.7332 49.8348C43.1046 51.1163 43.875 52.8544 43.875 54.6667V61.5C43.875 63.3123 43.1046 65.0504 41.7332 66.3319C40.3619 67.6134 38.5019 68.3333 36.5625 68.3333Z" fill="black"/>
</svg>
