<svg width="69" height="69" viewBox="0 0 69 69" fill="none" xmlns="http://www.w3.org/2000/svg">
<path d="M55.9762 0H12.9806C9.53935 0.00456403 6.24033 1.37363 3.80698 3.80698C1.37363 6.24033 0.00456403 9.53935 0 12.9806V55.9762C0.00570168 59.4286 1.37967 62.7379 3.82087 65.1791C6.26206 67.6203 9.57139 68.9943 13.0237 69H56.0194C59.4606 68.9954 62.7597 67.6264 65.193 65.193C67.6264 62.7597 68.9954 59.4606 69 56.0194V13.0237C68.9943 9.57139 67.6203 6.26206 65.1791 3.82087C62.7379 1.37967 59.4286 0.00570168 55.9762 0ZM25.875 4.3125H43.125V21.5625H25.875V4.3125ZM21.5625 64.6875H13.0237C10.7144 64.6841 8.50068 63.7652 6.86775 62.1323C5.23481 60.4993 4.31592 58.2856 4.3125 55.9762V47.4375H21.5625V64.6875ZM43.125 64.6875H25.875V47.4375H43.125V64.6875ZM64.6875 56.0194C64.6875 58.3183 63.7743 60.5231 62.1487 62.1487C60.5231 63.7743 58.3183 64.6875 56.0194 64.6875H47.4375V47.4375H64.6875V56.0194ZM64.6875 43.125H4.3125V12.9806C4.3125 10.6817 5.22575 8.47692 6.85134 6.85134C8.47692 5.22575 10.6817 4.3125 12.9806 4.3125H21.5625V23.7188C21.5625 24.2906 21.7897 24.8391 22.194 25.2435C22.5984 25.6478 23.1469 25.875 23.7188 25.875H64.6875V43.125ZM64.6875 21.5625H47.4375V4.3125H55.9762C58.2856 4.31592 60.4993 5.23481 62.1323 6.86775C63.7652 8.50068 64.6841 10.7144 64.6875 13.0237V21.5625Z" fill="black"/>
</svg>
