<svg width="198" height="137" viewBox="0 0 198 137" fill="none" xmlns="http://www.w3.org/2000/svg">
<path d="M59.9133 65.9289L93.8005 85.2922V46.5657L59.9102 27.2025L59.9133 65.9289Z" fill="#EA9D2D"/>
<path d="M93.8003 7.83923L59.9131 27.1993L93.8003 46.5626V85.289L127.684 65.9258V27.2025L93.8003 7.83923Z" fill="#FBB540"/>
<path d="M93.8003 85.2921L108.321 77.2257L127.687 65.9289V27.1993L93.8034 46.5626L93.8003 85.2921Z" fill="#F7BA61"/>
<path d="M124.457 59.4745C120.178 59.4745 116.074 61.1745 113.047 64.2006C110.021 67.2267 108.321 71.331 108.321 75.6105C108.321 79.89 110.021 83.9943 113.047 87.0204C116.074 90.0465 120.178 91.7465 124.457 91.7465C128.737 91.7465 132.841 90.0465 135.867 87.0204C138.893 83.9943 140.593 79.89 140.593 75.6105C140.593 71.331 138.893 67.2267 135.867 64.2006C132.841 61.1745 128.737 59.4745 124.457 59.4745Z" fill="#03CC00"/>
<path d="M84.119 57.8625L72.8223 51.4081V34.575L84.119 41.0294V57.8625Z" fill="#D9D9D9"/>
<path d="M105.138 14.3154L95.4096 20.7481L106.706 27.2025L116.41 20.7605L105.138 14.3154ZM87.3431 25.5904L72.8223 34.5749L84.119 41.0293L98.6399 32.0386L87.3431 25.5904Z" fill="#F0F0F0"/>
<path d="M117.203 41.7078L102.682 50.0077C102.491 50.1091 102.322 50.248 102.185 50.4161C102.048 50.5842 101.947 50.7781 101.887 50.9862C101.827 51.1943 101.809 51.4124 101.835 51.6274C101.861 51.8425 101.93 52.0502 102.037 52.2381C102.145 52.426 102.289 52.5904 102.462 52.7213C102.635 52.8523 102.832 52.9472 103.042 53.0004C103.252 53.0536 103.47 53.0641 103.684 53.0311C103.898 52.9981 104.104 52.9224 104.288 52.8085L118.809 44.5087C119.165 44.2883 119.422 43.9379 119.525 43.5317C119.628 43.1255 119.569 42.6951 119.361 42.3316C119.152 41.968 118.811 41.6997 118.408 41.5833C118.005 41.4669 117.573 41.5116 117.203 41.7078ZM129.3 27.2056C129.299 27.0625 129.279 26.9201 129.24 26.7824L129.178 26.6206L129.085 26.3934C129.043 26.3436 129.002 26.2896 128.96 26.2316L128.827 26.0573L128.665 25.9359L128.49 25.8021L94.6063 6.43888C94.3626 6.30028 94.087 6.22742 93.8065 6.22742C93.5261 6.22742 93.2505 6.30028 93.0067 6.43888L59.1227 25.799L58.9484 25.9328L58.7866 26.0542L58.6496 26.2284C58.6081 26.2803 58.5687 26.3343 58.5314 26.3903L58.438 26.6175L58.3727 26.7793C58.3307 26.9155 58.3077 27.0569 58.3042 27.1994V65.9258C58.3041 66.2094 58.3785 66.4881 58.5199 66.7338C58.6614 66.9796 58.8649 67.1839 59.1102 67.3263L92.985 86.6833L93.0036 86.6926L93.2433 86.7922C93.291 86.8129 93.3397 86.8316 93.3895 86.8482C93.6584 86.9218 93.9422 86.9218 94.2111 86.8482C94.2578 86.8389 94.2982 86.814 94.3449 86.7984L94.5908 86.7019L107.207 79.6905C108.302 84.254 111.161 88.1975 115.158 90.6574C119.155 93.1174 123.964 93.8932 128.531 92.815C133.099 91.7368 137.053 88.8925 139.528 84.9049C142.003 80.9174 142.796 76.1116 141.735 71.54C141.009 68.4632 139.474 65.6363 137.289 63.352C135.103 61.0677 132.347 59.4088 129.306 58.5471L129.3 27.2056ZM87.4113 27.4795L95.5711 32.1445L84.6104 39.4516L76.4475 34.7866L87.4113 27.4795ZM77.1259 39.5854L82.5035 42.6632V55.0834L74.434 50.4682V38.0511L77.1259 39.5854ZM106.644 25.3073L98.4902 20.6485L105.2 16.2138L113.338 20.8633L106.644 25.3073ZM102.06 14.4213L94.5223 19.4037C94.1658 19.6414 93.9181 20.0107 93.8335 20.4308C93.7489 20.8508 93.8343 21.2872 94.0711 21.6444C94.2075 21.8532 94.3922 22.0261 94.6095 22.1485L105.906 28.6029C106.166 28.7509 106.462 28.824 106.761 28.8141C107.059 28.8042 107.35 28.7118 107.599 28.5469L116.475 22.6558L124.435 27.1994L93.8034 44.7047L87.7474 41.2379L99.539 33.3768C99.7663 33.2235 99.951 33.0148 100.076 32.7705C100.2 32.5262 100.261 32.2542 100.251 31.9801C100.242 31.706 100.163 31.4388 100.022 31.2035C99.8813 30.9682 99.6829 30.7726 99.4456 30.6351L88.1488 24.1807C87.8886 24.0321 87.5923 23.9587 87.2929 23.9686C86.9934 23.9785 86.7026 24.0713 86.4528 24.2367L73.3199 32.9909L63.1683 27.2025L93.8034 9.69409L102.06 14.4213ZM71.2068 35.5179V51.4081C71.207 51.692 71.2818 51.9708 71.4239 52.2166C71.5659 52.4624 71.7701 52.6666 72.0159 52.8085L83.3096 59.2629C83.555 59.4054 83.8338 59.4805 84.1176 59.4807C84.4014 59.4809 84.6802 59.4062 84.9258 59.2641C85.1715 59.122 85.3753 58.9176 85.5166 58.6715C85.658 58.4253 85.7318 58.1463 85.7308 57.8625V43.8147L92.1852 47.5025V82.5193L61.5252 64.9953V29.9847L71.2068 35.5179ZM95.4124 47.5025L126.072 29.9816V57.9434C125.535 57.8931 124.996 57.8661 124.457 57.8625C119.751 57.8674 115.24 59.7388 111.912 63.0661C108.584 66.3933 106.712 70.9047 106.706 75.6106C106.706 75.8284 106.731 76.04 106.74 76.2548L95.4124 82.5504V47.5025ZM109.933 75.6106C109.933 71.7586 111.463 68.0643 114.187 65.3406C116.911 62.6168 120.605 61.0866 124.457 61.0866C128.309 61.0866 132.003 62.6168 134.727 65.3406C137.451 68.0643 138.981 71.7586 138.981 75.6106C138.979 79.4618 137.448 83.1546 134.724 85.8778C132.001 88.6011 128.308 90.132 124.457 90.1345C120.605 90.1345 116.911 88.6043 114.187 85.8806C111.463 83.1568 109.933 79.4626 109.933 75.6106ZM124.666 75.0006C123.917 76.6249 123.139 78.2361 122.335 79.8336C122.304 79.8336 121.364 78.3803 120.228 76.6033C118.799 74.3626 118.093 73.3294 117.888 73.2049C117.492 72.9809 116.646 72.9809 116.269 73.2143C116.073 73.3388 115.638 73.9705 114.919 75.1562L113.861 76.9207H108.841V79.8834L112.065 79.8523C115.034 79.8243 115.317 79.8149 115.588 79.6376C115.775 79.5224 116.123 79.0556 116.5 78.4239C116.848 77.8637 117.153 77.4342 117.181 77.484L119.325 80.845C120.791 83.1324 121.501 84.1749 121.712 84.3087C121.97 84.4345 122.253 84.4983 122.539 84.4951C122.826 84.4918 123.107 84.4216 123.362 84.2901C123.741 84.0567 123.44 84.648 127.034 77.0857L129.595 71.6614L129.838 72.0877C129.975 72.3118 130.877 73.9892 131.848 75.8035C133.846 79.5317 133.778 79.4073 134.148 79.65C134.4 79.8149 134.671 79.8336 137.556 79.8336H140.683V76.9207H138.287L135.875 76.9114L133.526 72.5234C130.597 67.0711 130.644 67.1582 130.295 66.9715C129.878 66.7568 129.051 66.7848 128.665 67.0306C128.304 67.264 128.353 67.1707 124.666 75.0006Z" fill="black"/>
<path d="M9.95673 98.636L43.8439 117.999V79.2728L9.95361 59.9095L9.95673 98.636Z" fill="#EA9D2D"/>
<path d="M43.8437 40.5463L9.95654 59.9064L43.8437 79.2696V117.996L77.7278 98.6328V59.9095L43.8437 40.5463Z" fill="#FBB540"/>
<path d="M43.8438 117.999L58.3646 109.933L77.7309 98.6359V59.9064L43.8469 79.2696L43.8438 117.999Z" fill="#F7BA61"/>
<path d="M74.5008 92.1815C70.2212 92.1815 66.117 93.8816 63.0909 96.9076C60.0648 99.9337 58.3647 104.038 58.3647 108.318C58.3647 112.597 60.0648 116.701 63.0909 119.727C66.117 122.754 70.2212 124.454 74.5008 124.454C78.7803 124.454 82.8846 122.754 85.9106 119.727C88.9367 116.701 90.6368 112.597 90.6368 108.318C90.6368 104.038 88.9367 99.9337 85.9106 96.9076C82.8846 93.8816 78.7803 92.1815 74.5008 92.1815Z" fill="#03CC00"/>
<path d="M34.1625 90.5695L22.8657 84.1151V67.282L34.1625 73.7364V90.5695Z" fill="#D9D9D9"/>
<path d="M55.1813 47.0225L45.453 53.4551L56.7498 59.9095L66.4532 53.4675L55.1813 47.0225ZM37.3866 58.2974L22.8657 67.2819L34.1625 73.7364L48.6833 64.7456L37.3866 58.2974Z" fill="#F0F0F0"/>
<path d="M67.2464 74.4148L52.7256 82.7147C52.5342 82.8161 52.3651 82.9551 52.2285 83.1232C52.0919 83.2913 51.9905 83.4851 51.9303 83.6932C51.8702 83.9013 51.8525 84.1194 51.8783 84.3345C51.9042 84.5495 51.973 84.7572 52.0808 84.9451C52.1885 85.1331 52.333 85.2974 52.5055 85.4284C52.6781 85.5593 52.8752 85.6542 53.0852 85.7075C53.2952 85.7607 53.5137 85.7711 53.7278 85.7381C53.9419 85.7052 54.1472 85.6295 54.3314 85.5155L68.8523 77.2157C69.2087 76.9953 69.4655 76.645 69.5685 76.2387C69.6714 75.8325 69.6125 75.4022 69.404 75.0386C69.1956 74.675 68.854 74.4067 68.4514 74.2903C68.0488 74.1739 67.6167 74.2186 67.2464 74.4148ZM79.343 59.9127C79.3428 59.7695 79.323 59.6271 79.2839 59.4894L79.2216 59.3276L79.1283 59.1004C79.0868 59.0506 79.0453 58.9967 79.0038 58.9386L78.87 58.7643L78.7081 58.6429L78.5339 58.5091L44.6498 39.1459C44.406 39.0073 44.1304 38.9344 43.85 38.9344C43.5696 38.9344 43.294 39.0073 43.0502 39.1459L9.16613 58.506L8.99185 58.6398L8.83003 58.7612L8.69309 58.9355C8.6516 58.9873 8.61218 59.0413 8.57484 59.0973L8.48147 59.3245L8.41612 59.4863C8.37416 59.6226 8.35112 59.7639 8.34766 59.9064V98.6329C8.34752 98.9165 8.42191 99.1951 8.56337 99.4409C8.70484 99.6867 8.9084 99.891 9.15368 100.033L43.0284 119.39L43.0471 119.4L43.2867 119.499C43.3344 119.52 43.3832 119.539 43.433 119.555C43.7019 119.629 43.9856 119.629 44.2546 119.555C44.3012 119.546 44.3417 119.521 44.3884 119.505L44.6342 119.409L57.2505 112.397C58.3458 116.961 61.2048 120.905 65.2016 123.364C69.1984 125.824 74.0071 126.6 78.5747 125.522C83.1423 124.444 87.0965 121.6 89.5713 117.612C92.0461 113.624 92.8399 108.819 91.7788 104.247C91.0527 101.17 89.5175 98.3434 87.3322 96.059C85.1469 93.7747 82.3908 92.1158 79.3492 91.2542L79.343 59.9127ZM37.4547 60.1865L45.6145 64.8515L34.6539 72.1586L26.4909 67.4936L37.4547 60.1865ZM27.1694 72.2924L32.547 75.3702V87.7905L24.4774 83.1753V70.7582L27.1694 72.2924ZM56.6872 58.0143L48.5336 53.3556L55.2432 48.9209L63.3813 53.5703L56.6872 58.0143ZM52.1032 47.1283L44.5658 52.1107C44.2092 52.3484 43.9615 52.7177 43.8769 53.1378C43.7923 53.5578 43.8778 53.9943 44.1145 54.3514C44.251 54.5602 44.4356 54.7331 44.6529 54.8556L55.9497 61.31C56.2095 61.4579 56.5052 61.531 56.8041 61.5212C57.1029 61.5113 57.3932 61.4188 57.6426 61.254L66.5182 55.3628L74.4789 59.9064L43.8469 77.4118L37.7908 73.9449L49.5824 66.0839C49.8098 65.9305 49.9945 65.7219 50.1191 65.4776C50.2437 65.2332 50.3042 64.9613 50.2949 64.6872C50.2855 64.4131 50.2067 64.1458 50.0657 63.9105C49.9248 63.6753 49.7263 63.4797 49.489 63.3421L38.1923 56.8877C37.9321 56.7391 37.6358 56.6657 37.3363 56.6756C37.0369 56.6855 36.746 56.7783 36.4962 56.9438L23.3633 65.698L13.2118 59.9095L43.8469 42.4011L52.1032 47.1283ZM21.2502 68.225V84.1151C21.2504 84.399 21.3253 84.6779 21.4673 84.9237C21.6093 85.1695 21.8135 85.3736 22.0594 85.5155L33.353 91.9699C33.5985 92.1124 33.8772 92.1875 34.161 92.1877C34.4448 92.1879 34.7236 92.1132 34.9693 91.9711C35.215 91.829 35.4188 91.6246 35.5601 91.3785C35.7014 91.1324 35.7753 90.8533 35.7742 90.5695V76.5217L42.2286 80.2095V115.226L11.5686 97.7024V62.6917L21.2502 68.225ZM45.4558 80.2095L76.1158 62.6886V90.6504C75.5788 90.6002 75.0399 90.5732 74.5006 90.5695C69.7948 90.5745 65.2831 92.4458 61.9552 95.7731C58.6274 99.1003 56.7552 103.612 56.7495 108.318C56.7495 108.535 56.7744 108.747 56.7837 108.962L45.4558 115.257V80.2095ZM59.9767 108.318C59.9767 104.466 61.5069 100.771 64.2306 98.0476C66.9544 95.3238 70.6486 93.7936 74.5006 93.7936C78.3526 93.7936 82.0469 95.3238 84.7706 98.0476C87.4944 100.771 89.0246 104.466 89.0246 108.318C89.0221 112.169 87.4911 115.862 84.7679 118.585C82.0447 121.308 78.3519 122.839 74.5006 122.842C70.6486 122.842 66.9544 121.311 64.2306 118.588C61.5069 115.864 59.9767 112.17 59.9767 108.318ZM74.7091 107.708C73.96 109.332 73.1829 110.943 72.3782 112.541C72.3471 112.541 71.4073 111.087 70.2714 109.31C68.8429 107.07 68.1365 106.036 67.9311 105.912C67.5359 105.688 66.6894 105.688 66.3128 105.921C66.1168 106.046 65.6811 106.678 64.9622 107.863L63.9041 109.628H58.8843V112.59L62.1084 112.559C65.0773 112.531 65.3605 112.522 65.6313 112.345C65.818 112.229 66.1665 111.763 66.5431 111.131C66.8917 110.571 67.1966 110.141 67.2246 110.191L69.3689 113.552C70.8346 115.839 71.5442 116.882 71.7558 117.016C72.0131 117.142 72.2963 117.205 72.5827 117.202C72.8691 117.199 73.1508 117.129 73.4052 116.997C73.7849 116.764 73.483 117.355 77.0774 109.793L79.6386 104.368L79.8814 104.795C80.0183 105.019 80.9208 106.696 81.8918 108.511C83.8897 112.239 83.8213 112.114 84.1916 112.357C84.4437 112.522 84.7144 112.541 87.5993 112.541H90.7269V109.628H88.3306L85.9188 109.618L83.5692 105.23C80.6407 99.7781 80.6874 99.8652 80.3389 99.6785C79.9218 99.4638 79.094 99.4918 78.7081 99.7376C78.3471 99.9711 78.3969 99.8777 74.7091 107.708Z" fill="black"/>
<path d="M107.365 103.343L141.253 122.706V83.9799L107.362 64.6167L107.365 103.343Z" fill="#EA9D2D"/>
<path d="M141.252 45.2534L107.365 64.6135L141.252 83.9767V122.703L175.136 103.34V64.6166L141.252 45.2534Z" fill="#FBB540"/>
<path d="M141.252 122.706L155.773 114.64L175.14 103.343V64.6135L141.256 83.9767L141.252 122.706Z" fill="#F7BA61"/>
<path d="M171.909 96.8887C167.63 96.8887 163.526 98.5887 160.5 101.615C157.473 104.641 155.773 108.745 155.773 113.025C155.773 117.304 157.473 121.408 160.5 124.435C163.526 127.461 167.63 129.161 171.909 129.161C176.189 129.161 180.293 127.461 183.319 124.435C186.345 121.408 188.045 117.304 188.045 113.025C188.045 108.745 186.345 104.641 183.319 101.615C180.293 98.5887 176.189 96.8887 171.909 96.8887Z" fill="#03CC00"/>
<path d="M131.571 95.2767L120.274 88.8222V71.9891L131.571 78.4435V95.2767Z" fill="#D9D9D9"/>
<path d="M152.59 51.7296L142.862 58.1622L154.158 64.6166L163.862 58.1747L152.59 51.7296ZM134.795 63.0046L120.274 71.9891L131.571 78.4435L146.092 69.4528L134.795 63.0046Z" fill="#F0F0F0"/>
<path d="M164.655 79.122L150.134 87.4219C149.943 87.5233 149.774 87.6622 149.637 87.8303C149.501 87.9984 149.399 88.1923 149.339 88.4004C149.279 88.6085 149.261 88.8266 149.287 89.0416C149.313 89.2567 149.382 89.4644 149.489 89.6523C149.597 89.8402 149.742 90.0046 149.914 90.1355C150.087 90.2665 150.284 90.3614 150.494 90.4146C150.704 90.4678 150.922 90.4783 151.136 90.4453C151.351 90.4123 151.556 90.3366 151.74 90.2227L166.261 81.9228C166.617 81.7024 166.874 81.3521 166.977 80.9459C167.08 80.5397 167.021 80.1093 166.813 79.7457C166.604 79.3822 166.263 79.1139 165.86 78.9975C165.457 78.8811 165.025 78.9257 164.655 79.122ZM176.752 64.6198C176.752 64.4767 176.732 64.3343 176.693 64.1966L176.63 64.0347L176.537 63.8076C176.495 63.7578 176.454 63.7038 176.412 63.6457L176.279 63.4715L176.117 63.3501L175.943 63.2163L142.058 43.8531C141.815 43.7145 141.539 43.6416 141.259 43.6416C140.978 43.6416 140.703 43.7145 140.459 43.8531L106.575 63.2132L106.401 63.347L106.239 63.4684L106.102 63.6426C106.06 63.6945 106.021 63.7484 105.984 63.8045L105.89 64.0316L105.825 64.1935C105.783 64.3297 105.76 64.4711 105.756 64.6136V103.34C105.756 103.624 105.831 103.902 105.972 104.148C106.114 104.394 106.317 104.598 106.562 104.74L140.437 124.097L140.456 124.107L140.695 124.206C140.743 124.227 140.792 124.246 140.842 124.262C141.111 124.336 141.394 124.336 141.663 124.262C141.71 124.253 141.75 124.228 141.797 124.213L142.043 124.116L154.659 117.105C155.754 121.668 158.614 125.612 162.61 128.072C166.607 130.532 171.416 131.307 175.983 130.229C180.551 129.151 184.505 126.307 186.98 122.319C189.455 118.332 190.249 113.526 189.187 108.954C188.461 105.877 186.926 103.051 184.741 100.766C182.556 98.4818 179.8 96.823 176.758 95.9613L176.752 64.6198ZM134.863 64.8937L143.023 69.5586L132.063 76.8658L123.9 72.2008L134.863 64.8937ZM124.578 76.9996L129.956 80.0774V92.4976L121.886 87.8824V75.4653L124.578 76.9996ZM154.096 62.7215L145.942 58.0627L152.652 53.628L160.79 58.2774L154.096 62.7215ZM149.512 51.8355L141.974 56.8179C141.618 57.0555 141.37 57.4249 141.286 57.8449C141.201 58.265 141.286 58.7014 141.523 59.0586C141.66 59.2673 141.844 59.4402 142.062 59.5627L153.358 66.0171C153.618 66.1651 153.914 66.2382 154.213 66.2283C154.512 66.2184 154.802 66.1259 155.051 65.9611L163.927 60.07L171.888 64.6136L141.256 82.1189L135.2 78.6521L146.991 70.791C147.218 70.6377 147.403 70.429 147.528 70.1847C147.652 69.9404 147.713 69.6684 147.704 69.3943C147.694 69.1202 147.615 68.853 147.474 68.6177C147.333 68.3824 147.135 68.1868 146.898 68.0493L135.601 61.5949C135.341 61.4463 135.044 61.3729 134.745 61.3828C134.446 61.3926 134.155 61.4855 133.905 61.6509L120.772 70.4051L110.62 64.6167L141.256 47.1083L149.512 51.8355ZM118.659 72.9321V88.8223C118.659 89.1062 118.734 89.385 118.876 89.6308C119.018 89.8766 119.222 90.0808 119.468 90.2227L130.762 96.6771C131.007 96.8196 131.286 96.8947 131.57 96.8949C131.854 96.8951 132.132 96.8204 132.378 96.6783C132.624 96.5362 132.827 96.3317 132.969 96.0856C133.11 95.8395 133.184 95.5605 133.183 95.2767V81.2289L139.637 84.9166V119.934L108.977 102.41V67.3989L118.659 72.9321ZM142.865 84.9166L173.524 67.3958V95.3576C172.988 95.3073 172.449 95.2803 171.909 95.2767C167.203 95.2816 162.692 97.153 159.364 100.48C156.036 103.807 154.164 108.319 154.158 113.025C154.158 113.243 154.183 113.454 154.192 113.669L142.865 119.965V84.9166ZM157.385 113.025C157.385 109.173 158.916 105.479 161.639 102.755C164.363 100.031 168.057 98.5008 171.909 98.5008C175.761 98.5008 179.456 100.031 182.179 102.755C184.903 105.479 186.433 109.173 186.433 113.025C186.431 116.876 184.9 120.569 182.177 123.292C179.453 126.015 175.761 127.546 171.909 127.549C168.057 127.549 164.363 126.019 161.639 123.295C158.916 120.571 157.385 116.877 157.385 113.025ZM172.118 112.415C171.369 114.039 170.592 115.65 169.787 117.248C169.756 117.248 168.816 115.794 167.68 114.017C166.252 111.777 165.545 110.744 165.34 110.619C164.945 110.395 164.098 110.395 163.722 110.628C163.525 110.753 163.09 111.385 162.371 112.57L161.313 114.335H156.293V117.298L159.517 117.266C162.486 117.238 162.769 117.229 163.04 117.052C163.227 116.937 163.575 116.47 163.952 115.838C164.3 115.278 164.605 114.848 164.633 114.898L166.778 118.259C168.243 120.547 168.953 121.589 169.164 121.723C169.422 121.849 169.705 121.912 169.991 121.909C170.278 121.906 170.559 121.836 170.814 121.704C171.194 121.471 170.892 122.062 174.486 114.5L177.047 109.076L177.29 109.502C177.427 109.726 178.33 111.403 179.3 113.218C181.298 116.946 181.23 116.821 181.6 117.064C181.852 117.229 182.123 117.248 185.008 117.248H188.136V114.335H185.739L183.327 114.326L180.978 109.938C178.049 104.485 178.096 104.572 177.748 104.386C177.331 104.171 176.503 104.199 176.117 104.445C175.756 104.678 175.806 104.585 172.118 112.415Z" fill="black"/>
</svg>
