<svg width="158" height="128" viewBox="0 0 158 128" fill="none" xmlns="http://www.w3.org/2000/svg">
<path d="M93.2598 56.6825C93.2598 54.7427 94.0303 52.8824 95.4019 51.5108C96.7736 50.1392 98.6339 49.3686 100.574 49.3686C102.513 49.3686 104.374 50.1392 105.745 51.5108C107.117 52.8824 107.887 54.7427 107.887 56.6825V71.3102C107.887 73.25 107.117 75.1103 105.745 76.4819C104.374 77.8535 102.513 78.6241 100.574 78.6241C98.6339 78.6241 96.7736 77.8535 95.4019 76.4819C94.0303 75.1103 93.2598 73.25 93.2598 71.3102V56.6825Z" stroke="black" stroke-width="10"/>
<path d="M93.3623 100.566L98.8477 100.58V100.566H93.3623ZM93.3623 27.427H98.8477V27.4124L93.3623 27.427ZM98.8038 115.23L98.8477 100.58L87.8769 100.551L87.833 115.201L98.8038 115.23ZM100.691 98.7372C101.722 98.7372 102.541 99.571 102.541 100.566H113.512C113.512 93.4859 107.756 87.7664 100.691 87.7664V98.7372ZM100.691 87.7664C93.6256 87.7664 87.8769 93.4859 87.8769 100.566H98.8477C98.8477 99.571 99.6596 98.7372 100.691 98.7372V87.7664ZM63.9679 10.9708H89.6396V9.25612e-06H63.9679V10.9708ZM86.0046 117.022H63.9679V127.993H86.0046V117.022ZM63.9679 117.022C49.9911 117.022 40.0515 117.007 32.5183 115.998C25.1312 115.011 20.8819 113.153 17.7735 110.052L10.0281 117.826C15.5135 123.297 22.4763 125.725 31.0628 126.881C39.503 128.015 50.2983 128 63.9752 128L63.9679 117.022ZM63.9679 9.25612e-06C50.291 9.25612e-06 39.4957 -0.0146176 31.0555 1.11903C22.469 2.27462 15.5135 4.70282 10.0281 10.1736L17.7808 17.9409C20.8819 14.8398 25.1386 12.9821 32.5183 11.9948C40.0515 10.9854 49.9911 10.9708 63.9679 10.9708V9.25612e-06ZM9.78675 56.0169C12.6099 57.5894 14.4896 60.5808 14.4896 63.9963H25.4604C25.4598 60.4164 24.5037 56.9014 22.6909 53.8144C20.878 50.7274 18.274 48.1802 15.1478 46.4358L9.78675 56.0169ZM11.0521 42.201C11.6225 28.6265 13.4729 22.2269 17.7808 17.9409L10.0281 10.1736C2.49483 17.6923 0.666364 28.0121 0.0812542 41.7476L11.0521 42.201ZM14.4896 63.9963C14.4896 67.4119 12.6099 70.4033 9.78675 71.9831L15.1405 81.5643C18.2692 79.8202 20.8753 77.2722 22.6896 74.1837C24.5038 71.0952 25.4604 67.5783 25.4604 63.9963H14.4896ZM0.0885684 86.2451C0.673678 99.9659 2.50214 110.308 10.0281 117.819L17.7808 110.052C13.4729 105.766 11.6225 99.3589 11.0521 85.7844L0.0885684 86.2451ZM142.775 63.9963C142.775 60.5808 144.654 57.5894 147.478 56.0169L142.124 46.4358C138.996 48.1792 136.391 50.726 134.577 53.8131C132.762 56.9002 131.805 60.4156 131.804 63.9963H142.775ZM157.176 41.7476C156.591 28.0268 154.762 17.6849 147.236 10.1736L139.484 17.9409C143.784 22.2269 145.642 28.6338 146.212 42.2083L157.176 41.7476ZM147.478 71.9831C146.053 71.1918 144.866 70.0341 144.039 68.6298C143.212 67.2256 142.776 65.6259 142.775 63.9963H131.804C131.804 71.5589 135.98 78.1267 142.124 81.5569L147.478 71.9831ZM146.212 85.7844C145.642 99.3589 143.791 105.766 139.484 110.052L147.236 117.819C154.77 110.308 156.598 99.9733 157.176 86.2451L146.212 85.7844ZM142.124 81.5569C144.201 82.7198 145.561 83.4805 146.476 84.0583C146.929 84.3435 147.134 84.4971 147.192 84.541C147.295 84.6288 146.922 84.3655 146.571 83.7365L156.152 78.3754C155.646 77.4977 154.978 76.7234 154.184 76.0935C153.594 75.6149 152.974 75.1751 152.327 74.777C151.105 74.0017 149.43 73.0729 147.478 71.9758L142.124 81.5569ZM157.176 86.2451C157.227 84.9945 157.286 83.6999 157.242 82.6174C157.211 81.1373 156.835 79.6847 156.145 78.3754L146.571 83.7292C146.205 83.0709 146.256 82.6175 146.278 83.1002C146.288 83.2952 146.288 83.6219 146.278 84.0802L146.212 85.7844L157.176 86.2451ZM147.478 56.0169C149.43 54.9198 151.105 53.991 152.327 53.2157C152.968 52.8093 153.588 52.3699 154.184 51.8992C154.975 51.2686 155.64 50.4944 156.145 49.6173L146.571 44.2635C146.922 43.6272 147.295 43.3639 147.185 43.4517C146.958 43.6263 146.721 43.7875 146.476 43.9344C145.561 44.5195 144.208 45.2728 142.124 46.4358L147.478 56.0169ZM146.212 42.2083L146.278 43.9052C146.288 44.3635 146.288 44.6902 146.278 44.8852C146.256 45.3679 146.205 44.9145 146.571 44.2562L156.152 49.61C156.84 48.3 157.213 46.8475 157.242 45.3679C157.267 44.1582 157.243 42.9479 157.168 41.7402L146.212 42.2083ZM9.78675 71.9758C7.83395 73.0729 6.15908 73.9944 4.93766 74.7697C4.29058 75.1678 3.67004 75.6076 3.07994 76.0862C2.28891 76.7168 1.62391 77.4983 1.11982 78.3754L10.6937 83.7218C10.3426 84.3581 9.9696 84.6214 10.072 84.5337C10.1378 84.4825 10.3353 84.3362 10.7888 84.051C11.703 83.4659 13.0561 82.7125 15.1405 81.5496L9.78675 71.9758ZM11.0521 85.777L10.9862 84.0729C10.9753 83.7463 10.9753 83.4194 10.9862 83.0928C11.0082 82.6101 11.0594 83.0636 10.6937 83.7218L1.11251 78.3681C0.42409 79.678 0.050935 81.1306 0.0227432 82.6101C-0.02114 83.6926 0.0373708 84.9871 0.0958818 86.2378L11.0521 85.777ZM15.1405 46.4284C13.0634 45.2655 11.703 44.5049 10.7888 43.9271C10.5405 43.7805 10.3012 43.6193 10.072 43.4444C9.9696 43.3566 10.3426 43.6199 10.6937 44.2489L1.11251 49.61C1.72687 50.6924 2.53871 51.4384 3.07994 51.8919C3.66505 52.3746 4.31598 52.8134 4.93766 53.2084C6.15908 53.9837 7.83395 54.9125 9.78675 56.0096L15.1405 46.4284ZM0.0812542 41.7476C0.0300572 42.9982 -0.0284534 44.2928 0.0154298 45.3752C0.0666269 46.4723 0.234846 48.0594 1.11251 49.6173L10.6937 44.2635C11.0594 44.9218 11.0009 45.3752 10.9789 44.8925C10.968 44.5659 10.968 44.2391 10.9789 43.9125L11.0447 42.2083L0.0812542 41.7476ZM98.8404 27.4124L98.7819 9.11309L87.8184 9.14966L87.8696 27.4416L98.8404 27.4124ZM100.683 29.2555C100.442 29.2574 100.203 29.2115 99.9793 29.1205C99.7557 29.0295 99.5525 28.8951 99.3811 28.7251C99.2098 28.5551 99.0738 28.3529 98.981 28.1301C98.8882 27.9073 98.8404 27.6684 98.8404 27.427H87.8696C87.8696 34.5068 93.6183 40.2263 100.683 40.2263V29.2555ZM102.549 27.427C102.549 28.4217 101.729 29.2555 100.698 29.2555V40.2263C107.763 40.2263 113.519 34.5068 113.519 27.427H102.549ZM102.549 9.25936V27.427H113.519V9.25936H102.549ZM111.618 11.1098C127.62 11.5194 134.795 13.2454 139.498 17.9409L147.251 10.1736C139.111 2.0552 127.599 0.54855 111.896 0.138973L111.618 11.1098ZM113.519 9.25936C113.519 10.2833 112.671 11.1317 111.618 11.1098L111.896 0.138973C110.679 0.108718 109.469 0.322271 108.336 0.767048C107.203 1.21183 106.171 1.87883 105.299 2.72877C104.428 3.57871 103.736 4.59439 103.264 5.71597C102.791 6.83754 102.548 8.04234 102.549 9.25936H113.519ZM89.6396 10.9708C89.1559 10.9689 88.7 10.7754 88.3587 10.4327C88.0173 10.09 87.8257 9.62602 87.8257 9.14234L98.7965 9.11309C98.7888 6.69346 97.8221 4.37558 96.1085 2.66739C94.3948 0.959188 92.0738 -3.13245e-06 89.6542 9.25612e-06L89.6396 10.9708ZM115.677 127.729C129.39 127.144 139.732 125.316 147.244 117.819L139.484 110.052C135.198 114.338 128.783 116.195 115.223 116.766L115.677 127.729ZM102.549 100.566V115.025H113.519V100.566H102.549ZM87.8403 115.193C87.8403 116.078 87.8403 116.759 87.8184 117.336C87.8038 117.921 87.7745 118.258 87.7453 118.47C87.716 118.682 87.7087 118.609 87.7891 118.397C87.931 118.085 88.1266 117.8 88.3669 117.556L96.1123 125.323C97.5219 123.866 98.4026 121.978 98.6137 119.962C98.8111 118.521 98.7965 116.795 98.8038 115.23L87.8403 115.193ZM86.0046 127.993C87.5697 127.993 89.3031 128.007 90.7439 127.81C92.3457 127.59 94.3863 127.042 96.1123 125.323L88.3596 117.556C88.6089 117.317 88.8987 117.123 89.2153 116.985C89.4201 116.898 89.4933 116.912 89.2885 116.934C88.9093 116.973 88.5286 116.998 88.1475 117.007C87.5624 117.022 86.8822 117.022 86.0046 117.022V127.993ZM115.223 116.766C114.346 116.802 113.666 116.832 113.088 116.839C112.51 116.846 112.174 116.839 111.976 116.817C111.779 116.795 111.866 116.781 112.086 116.868C112.356 116.971 112.671 117.161 112.956 117.424L105.364 125.345C107.149 127.057 109.233 127.568 110.901 127.729C112.378 127.876 114.112 127.795 115.677 127.729L115.223 116.766ZM102.549 115.025C102.549 116.62 102.534 118.39 102.739 119.874C102.965 121.527 103.558 123.612 105.364 125.345L112.956 117.424C113.249 117.702 113.439 118.017 113.556 118.28C113.644 118.499 113.629 118.572 113.607 118.368C113.567 117.981 113.543 117.593 113.534 117.205C113.519 116.62 113.519 115.925 113.519 115.025H102.549Z" fill="black"/>
</svg>
