<svg width="52" height="108" viewBox="0 0 52 108" fill="none" xmlns="http://www.w3.org/2000/svg">
<path fill-rule="evenodd" clip-rule="evenodd" d="M0.808838 5.99996C0.808838 4.58547 1.34037 3.22892 2.2865 2.22872C3.23263 1.22853 4.51585 0.666626 5.85388 0.666626H46.2142C47.5523 0.666626 48.8355 1.22853 49.7816 2.22872C50.7278 3.22892 51.2593 4.58547 51.2593 5.99996C51.2593 7.41445 50.7278 8.771 49.7816 9.7712C48.8355 10.7714 47.5523 11.3333 46.2142 11.3333V86C46.2142 91.6579 44.0881 97.0841 40.3036 101.085C36.5191 105.086 31.3862 107.333 26.0341 107.333C20.6819 107.333 15.549 105.086 11.7645 101.085C7.98 97.0841 5.85388 91.6579 5.85388 86V11.3333C4.51585 11.3333 3.23263 10.7714 2.2865 9.7712C1.34037 8.771 0.808838 7.41445 0.808838 5.99996ZM36.1242 70H31.0791C29.7411 70 28.4579 70.5619 27.5117 71.562C26.5656 72.5622 26.0341 73.9188 26.0341 75.3333C26.0341 76.7478 26.5656 78.1043 27.5117 79.1045C28.4579 80.1047 29.7411 80.6666 31.0791 80.6666H36.1242V86C36.1242 88.8289 35.0611 91.542 33.1688 93.5424C31.2766 95.5428 28.7101 96.6666 26.0341 96.6666C23.358 96.6666 20.7916 95.5428 18.8993 93.5424C17.007 91.542 15.944 88.8289 15.944 86V11.3333H36.1242V27.3333H31.0791C29.7411 27.3333 28.4579 27.8952 27.5117 28.8954C26.5656 29.8956 26.0341 31.2521 26.0341 32.6666C26.0341 34.0811 26.5656 35.4377 27.5117 36.4379C28.4579 37.4381 29.7411 38 31.0791 38H36.1242V48.6666H31.0791C29.7411 48.6666 28.4579 49.2285 27.5117 50.2287C26.5656 51.2289 26.0341 52.5855 26.0341 54C26.0341 55.4144 26.5656 56.771 27.5117 57.7712C28.4579 58.7714 29.7411 59.3333 31.0791 59.3333H36.1242V70Z" fill="black"/>
</svg>
